<svg width="168px" height="131px" viewBox="0 0 168 131">
    <g id="Page-1" stroke="none" stroke-width="1" fill-rule="evenodd">
        <g id="Artboard-1" transform="translate(-359.000000, -32.000000)">
            <path d="M386.02601,95.727069 C386.02601,98.6952398 383.614523,101.101496 380.6399,101.101496 C377.665276,101.101496 375.25379,98.6952398 375.25379,95.727069 C375.25379,92.758804 377.665276,90.3526419 380.6399,90.3526419 C383.614523,90.3526419 386.02601,92.758804 386.02601,95.727069 L386.02601,95.727069 Z M402.279799,99.367655 L402.279799,92.0863888 L395.758739,90.9865608 C395.474246,90.0824146 395.110047,89.2135646 394.675197,88.3875406 L398.503014,83.0143371 L393.343196,77.8656172 L387.944163,81.6951082 C387.1287,81.2716486 386.27211,80.9164281 385.38128,80.6380121 L384.2884,74.1864407 L376.9914,74.1864407 L375.898519,80.6380121 C374.996747,80.9198165 374.130064,81.2804961 373.305735,81.7109209 L367.936604,77.9027017 L362.776786,83.0513275 L366.593283,88.4087183 C366.163432,89.2285302 365.8031,90.0901327 365.521061,90.9865608 L359,92.0863888 L359,99.367655 L365.521061,100.467483 C365.79961,101.352993 366.154565,102.204618 366.577436,103.015394 L362.739715,108.402716 L367.899533,113.551436 L373.284416,109.731922 C374.109406,110.16423 374.976938,110.526603 375.879748,110.810008 L376.9914,117.372362 L384.2884,117.372362 L385.400051,110.810008 C386.291825,110.530086 387.149358,110.173077 387.965386,109.747735 L393.380266,113.588427 L398.540084,108.439801 L394.691044,103.036666 C395.118914,102.21949 395.477736,101.360805 395.758739,100.467483 L402.279799,99.367655 Z M447.90456,97.5605219 C447.803017,100.731272 444.112583,104.82439 444.112583,104.82439 C444.112583,104.82439 440.219063,100.807112 440.320606,97.5605219 C440.386841,95.4475172 442.018367,93.732773 444.112583,93.732773 C446.206935,93.732773 447.9723,95.4475172 447.90456,97.5605219 Z M467.498607,84.5283004 L467.498607,93.6420144 L450.205008,85.8947911 C450.066516,86.2402817 449.919676,86.58743 449.763256,86.9318155 L449.83045,86.9318155 L449.83045,90.2266164 L447.763604,90.2266164 C446.773905,91.3858957 445.572225,92.1861465 444.111488,92.2477573 C442.640624,92.185732 441.435797,91.3860338 440.445961,90.2266164 L438.394853,90.2266164 L438.394853,86.9318155 L438.451919,86.9318155 C438.296731,86.5885352 438.150849,86.242492 438.013588,85.897692 L420.726559,93.6420144 L420.726559,84.5283004 L434.023863,71.2329202 C433.229996,66.7306289 432.802888,62.1816459 432.631004,57.6477203 C432.622793,48.6447953 435.711087,38.7916125 444.111214,32.4467966 C452.511889,38.7906455 455.602373,48.6456242 455.594162,57.6477203 C455.422278,62.1819222 454.995169,66.7306289 454.201029,71.2326439 L467.498607,84.5283004 Z M526.950971,91.6185106 C526.951048,91.5922749 526.951974,91.5661907 526.951974,91.5398791 C526.951974,83.626836 522.236744,76.7979521 515.41968,73.6206178 L507.712238,91.6185106 L526.950971,91.6185106 Z M514.832955,70.2468944 C512.417138,69.273896 509.788478,68.7072487 507.033931,68.6359724 L507.033931,88.8378977 L514.832955,70.2468944 Z M505.49215,93.2108553 L505.49215,72.2587082 C494.613494,72.5400224 485.882464,81.302316 485.882464,92.0706607 C485.882464,103.016438 494.903581,111.889817 506.031773,111.889817 C516.770743,111.889817 525.546331,103.625927 526.147087,93.2108553 L505.49215,93.2108553 Z M457.356204,136.570208 C456.345199,122.79799 449.475267,119.943472 445.799681,119.411466 C445.802747,119.374092 445.807082,119.336927 445.807082,119.299031 C445.807082,118.32407 444.76954,117.533579 443.489582,117.533579 C442.209623,117.533579 441.171976,118.32407 441.171976,119.299031 C441.171976,119.366367 441.178108,119.432659 441.187729,119.49822 C437.527366,120.154353 430.682279,123.183109 429.622959,136.570208 C429.11476,142.993422 420.272295,146.416275 420.272295,156.854899 L466.840288,156.854899 C466.840288,146.416275 457.827824,142.996032 457.356204,136.570208 Z M443.489582,162.996033 C446.217912,162.996033 448.429797,160.81195 448.429797,158.117785 L438.549367,158.117785 C438.549367,160.81195 440.761146,162.996033 443.489582,162.996033 Z M447.158317,48.7833507 C447.158317,47.0853216 445.794743,45.7088847 444.112583,45.7088847 C442.430559,45.7088847 441.066986,47.0853216 441.066986,48.7833507 C441.066986,50.4812417 442.430559,51.8576786 444.112583,51.8576786 C445.794743,51.8576786 447.158317,50.4812417 447.158317,48.7833507 Z M445.06369,55.4213019 C445.06369,54.8909786 444.63795,54.4610838 444.112583,54.4610838 C443.587352,54.4610838 443.161475,54.8909786 443.161475,55.4213019 C443.161475,55.951487 443.587352,56.3813818 444.112583,56.3813818 C444.63795,56.3813818 445.06369,55.951487 445.06369,55.4213019 Z" id="Combined-Shape"></path>
        </g>
    </g>
</svg>
