<?xml version="1.0" encoding="utf-8"?>
<!-- Generator: Adobe Illustrator 18.0.0, SVG Export Plug-In . SVG Version: 6.00 Build 0)  -->
<!DOCTYPE svg PUBLIC "-//W3C//DTD SVG 1.1//EN" "http://www.w3.org/Graphics/SVG/1.1/DTD/svg11.dtd">
<svg version="1.1" id="Layer_1" xmlns="http://www.w3.org/2000/svg" xmlns:xlink="http://www.w3.org/1999/xlink" x="0px" y="0px"
	 viewBox="0 0 650 650" enable-background="new 0 0 650 650" xml:space="preserve">
<g>
	<path d="M325,538.1l-47.7-46.8c26.3-26.3,69.1-26.3,95.3,0c0,0,0,0,0,0L325,538.1z"/>
	<path d="M404.5,459.5L404.5,459.5c-43.8-43.8-115.1-43.8-158.9,0l-31.8-31.8c61.3-61.3,161.1-61.3,222.5,0l0,0L404.5,459.5z"/>
	<path d="M468,395.9C468,395.9,468,395.9,468,395.9c-78.9-78.9-207.2-78.9-286,0l-31.8-31.8c96.4-96.4,253.2-96.4,349.6,0l0,0
		L468,395.9z"/>
	<path d="M531.6,332.4L531.6,332.4c-113.9-113.9-299.3-113.9-413.2,0l-31.8-31.8c131.4-131.4,345.3-131.4,476.7,0c0,0,0,0,0,0
		L531.6,332.4z"/>
	<path d="M595.1,268.8L595.1,268.8c-149-149-391.3-149-540.3,0L23.1,237c80.6-80.6,187.9-125.1,301.9-125.1
		c114.1,0,221.3,44.4,301.9,125.1l0,0L595.1,268.8z"/>
</g>
</svg>
