<?xml version="1.0" encoding="utf-8"?>
<!-- Generator: Adobe Illustrator 18.0.0, SVG Export Plug-In . SVG Version: 6.00 Build 0)  -->
<!DOCTYPE svg PUBLIC "-//W3C//DTD SVG 1.1//EN" "http://www.w3.org/Graphics/SVG/1.1/DTD/svg11.dtd">
<svg version="1.1" id="Layer_1" xmlns="http://www.w3.org/2000/svg" xmlns:xlink="http://www.w3.org/1999/xlink" x="0px" y="0px"
	 viewBox="0 0 650 650" enable-background="new 0 0 650 650" xml:space="preserve">
<g id="lightbulb">
	<path d="M462.4,201.1c-4.8-53.3-43.9-100.6-96-117.2c-52.1-16.5-110-0.2-145.6,41.2c-38.2,44.3-44.5,104.4-16.1,157.6
		c18.1,33.9,35.4,68.1,44.2,105.8c2.9,12.4,5,25.1,8.2,37.5c3.5,13.8,10.3,19.5,24.3,20c14.4,0.5,28.8,0.1,43.2,0.1c0,0,0,0,0,0.1
		c14.4,0,28.8,0.4,43.2-0.1c15-0.6,21.8-6.5,25.5-21.2c2.2-8.7,3.7-17.5,5.4-26.3c8.1-41,25.7-78.2,45.7-114.4
		C458.7,258.2,465.1,230.5,462.4,201.1z M301.8,121.2c-1.5,7.3-8.7,12-16,10.5c-1.2-0.2-7.8,1-18.9,10.3
		c-16.7,13.9-29.3,33.6-29.4,42c-0.1,7.4-6.2,13.3-13.5,13.3c-0.1,0-0.1,0-0.2,0c-7.5-0.1-13.5-6.3-13.3-13.8
		c0.3-20.5,21.3-48.2,40.9-63.9c15.1-12.1,28.6-17,40.1-14.6C298.6,106.7,303.3,113.9,301.8,121.2z"/>
	<g>
		<rect x="256.5" y="457" width="137" height="22.5"/>
		<rect x="256.5" y="488" width="137" height="22.5"/>
		<rect x="256.5" y="519" width="137" height="22.5"/>
		<polygon points="382.2,549.9 267.8,549.9 276.2,572.5 373.8,572.5 		"/>
	</g>
</g>
</svg>
