<?xml version="1.0" encoding="utf-8"?>
<!-- Generator: Adobe Illustrator 18.0.0, SVG Export Plug-In . SVG Version: 6.00 Build 0)  -->
<!DOCTYPE svg PUBLIC "-//W3C//DTD SVG 1.1//EN" "http://www.w3.org/Graphics/SVG/1.1/DTD/svg11.dtd">
<svg version="1.1" id="Layer_1" xmlns="http://www.w3.org/2000/svg" xmlns:xlink="http://www.w3.org/1999/xlink" x="0px" y="0px"
	 viewBox="0 0 650 650" enable-background="new 0 0 650 650" xml:space="preserve">
<g>
	<path d="M438.2,268.5v193.9c0,6.5-5.5,12.1-12.1,12.1H190.5c-6.5,0-12.1-5.5-12.1-12.1V226.8c0-6.5,5.5-12.1,12.1-12.1h182.3
		l36.2-36.2H190.5c-26.6,0-48.3,21.7-48.3,48.3v235.6c0,26.6,21.7,48.3,48.3,48.3h235.6c26.6,0,48.3-21.7,48.3-48.3V232.2
		L438.2,268.5z"/>
	<polygon points="493.6,195.5 299.4,389.7 252.4,394.7 257.4,347.7 451.6,153.5 	"/>
	<rect x="473.2" y="136.2" transform="matrix(0.7071 -0.7071 0.7071 0.7071 23.6098 388.8287)" width="15.9" height="59.4"/>
</g>
</svg>
